# 3ds Max Wavefront OBJ Exporter v0.97b - (c)2007 guruware
# File Created: 28.07.2013 15:22:27

#
# object Hedra001
#

v  0.0000 0.9845 0.1756
v  0.6083 0.1242 0.7839
v  0.7839 -0.1242 0.6083
v  0.7839 -0.1242 -0.6083
v  0.6083 0.1242 -0.7839
v  0.0000 0.9845 -0.1756
v  0.1756 -0.9845 0.0000
v  -0.1756 -0.9845 -0.0000
v  -0.7839 -0.1242 -0.6083
v  -0.6083 0.1242 -0.7839
v  -0.7839 -0.1242 0.6083
v  -0.6083 0.1242 0.7839
# 12 vertices

vn 0.8165 0.5774 0.0000
vn 0.8165 0.5774 -0.0000
vn 0.0000 -0.5774 -0.8165
vn -0.8165 0.5774 -0.0000
vn -0.0000 -0.5774 0.8165
vn 0.0000 -0.5774 0.8165
vn -0.0000 0.5774 -0.8165
vn -0.0000 0.5774 0.8165
vn 0.8165 -0.5774 -0.0000
vn -0.8165 -0.5774 -0.0000
# 10 vertex normals

vt -0.1120 0.5000 0.0000
vt -0.5000 0.0631 0.3880
vt -0.3880 -0.0631 0.5000
vt 0.3880 -0.0631 0.5000
vt 0.5000 0.0631 0.3880
vt 0.1120 0.5000 0.0000
vt -0.0631 0.5000 0.3880
vt -0.5000 0.1120 -0.0000
vt -0.5000 -0.1120 0.0000
vt -0.0631 -0.5000 0.3880
vt 0.0631 -0.3880 0.5000
vt 0.0631 0.3880 0.5000
vt 0.3880 -0.0631 -0.5000
vt -0.3880 -0.0631 -0.5000
vt -0.5000 0.0631 -0.3880
vt 0.5000 0.0631 -0.3880
vt -0.0631 -0.5000 -0.3880
vt -0.0631 0.5000 -0.3880
vt 0.0631 0.3880 -0.5000
vt 0.0631 -0.3880 -0.5000
vt 0.5000 0.0000 0.1120
vt 0.5000 0.0000 -0.1120
vt -0.0000 -0.5000 0.1120
vt 0.0000 -0.5000 -0.1120
# 24 texture coords

g Hedra001
s off
f 1/1/1 2/2/1 3/3/1 
f 1/1/2 3/3/2 4/4/2 
f 1/1/1 4/4/1 5/5/1 
f 1/1/2 5/5/2 6/6/2 
f 4/7/3 7/8/3 8/9/3 
f 4/7/3 8/9/3 9/10/3 
f 4/7/3 9/10/3 10/11/3 
f 4/7/3 10/11/3 5/12/3 
f 9/13/4 11/14/4 12/15/4 
f 9/13/4 12/15/4 1/1/4 
f 9/13/4 1/1/4 6/6/4 
f 9/13/4 6/6/4 10/16/4 
f 11/17/5 8/9/5 7/8/5 
f 11/17/5 7/8/5 3/18/5 
f 11/17/5 3/18/5 2/19/5 
f 11/17/6 2/19/6 12/20/6 
f 5/12/7 10/11/7 6/21/7 
f 12/20/8 2/19/8 1/22/8 
f 3/3/9 7/23/9 4/4/9 
f 11/14/10 9/13/10 8/24/10 
# 20 faces

