# 3ds Max Wavefront OBJ Exporter v0.97b - (c)2007 guruware
# File Created: 29.07.2013 17:42:04

#
# object Hedra001
#

v  0.5348 0.8450 -0.0000
v  0.6938 0.5878 0.4162
v  0.9510 0.1716 0.2572
v  0.9510 0.1716 -0.2572
v  0.6938 0.5878 -0.4162
v  -0.1716 0.2572 -0.9510
v  -0.1716 -0.2572 -0.9510
v  -0.5878 -0.4162 -0.6938
v  -0.8450 -0.0000 -0.5348
v  -0.5878 0.4162 -0.6938
v  -0.2572 0.9510 0.1716
v  -0.4162 0.6938 0.5878
v  -0.0000 0.5348 0.8450
v  0.4162 0.6938 0.5878
v  0.2572 0.9510 0.1716
v  0.5878 0.4162 -0.6938
v  0.8450 -0.0000 -0.5348
v  0.5878 -0.4162 -0.6938
v  0.1716 -0.2572 -0.9510
v  0.1716 0.2572 -0.9510
v  -0.6938 0.5878 -0.4162
v  -0.9510 0.1716 -0.2572
v  -0.9510 0.1716 0.2572
v  -0.6938 0.5878 0.4162
v  -0.5348 0.8450 -0.0000
v  0.1716 0.2572 0.9510
v  0.1716 -0.2572 0.9510
v  0.5878 -0.4162 0.6938
v  0.8450 0.0000 0.5348
v  0.5878 0.4162 0.6938
v  0.2572 0.9510 -0.1716
v  0.4162 0.6938 -0.5878
v  0.0000 0.5348 -0.8450
v  -0.4162 0.6938 -0.5878
v  -0.2572 0.9510 -0.1716
v  -0.5878 0.4162 0.6938
v  -0.8450 -0.0000 0.5348
v  -0.5878 -0.4162 0.6938
v  -0.1716 -0.2572 0.9510
v  -0.1716 0.2572 0.9510
v  -0.0000 -0.5348 0.8450
v  -0.4162 -0.6938 0.5878
v  -0.2572 -0.9510 0.1716
v  0.2572 -0.9510 0.1716
v  0.4162 -0.6938 0.5878
v  0.6938 -0.5878 0.4162
v  0.5348 -0.8450 0.0000
v  0.6938 -0.5878 -0.4162
v  0.9510 -0.1716 -0.2572
v  0.9510 -0.1716 0.2572
v  -0.2572 -0.9510 -0.1716
v  -0.4162 -0.6938 -0.5878
v  0.0000 -0.5348 -0.8450
v  0.4162 -0.6938 -0.5878
v  0.2572 -0.9510 -0.1716
v  -0.6938 -0.5878 0.4162
v  -0.9510 -0.1716 0.2572
v  -0.9510 -0.1716 -0.2572
v  -0.6938 -0.5878 -0.4162
v  -0.5348 -0.8450 -0.0000
v  0.0000 0.6114 -0.3779
v  -0.0000 0.6114 0.3779
v  0.3779 0.0000 0.6114
v  -0.0000 -0.6114 0.3779
v  0.0000 -0.6114 -0.3779
v  -0.3779 -0.0000 -0.6114
v  -0.6114 -0.3779 -0.0000
v  -0.6114 0.3779 -0.0000
v  -0.3779 -0.0000 0.6114
v  0.3779 0.0000 -0.6114
v  0.6114 0.3779 0.0000
v  0.6114 -0.3779 0.0000
# 72 vertices

vn 0.8507 0.5257 0.0000
vn 0.8507 0.5257 -0.0000
vn -0.5257 0.0000 -0.8507
vn -0.5257 -0.0000 -0.8507
vn -0.0000 0.8507 0.5257
vn 0.0000 0.8507 0.5257
vn 0.5257 0.0000 -0.8507
vn -0.8507 0.5257 -0.0000
vn 0.5257 0.0000 0.8507
vn 0.5257 -0.0000 0.8507
vn 0.0000 0.8507 -0.5257
vn -0.0000 0.8507 -0.5257
vn -0.5257 0.0000 0.8507
vn -0.0000 -0.8507 0.5257
vn 0.0000 -0.8507 0.5257
vn 0.8507 -0.5257 -0.0000
vn -0.0000 -0.8507 -0.5257
vn 0.0000 -0.8507 -0.5257
vn -0.8507 -0.5257 -0.0000
vn -0.8507 -0.5257 0.0000
vn -0.8507 0.5257 0.0000
vn -0.5257 -0.0000 0.8507
vn 0.5257 -0.0000 -0.8507
vn 0.8507 -0.5257 0.0000
# 24 vertex normals

vt 0.0000 0.4442 0.2812
vt -0.2188 0.3090 0.3648
vt -0.1352 0.0902 0.5000
vt 0.1352 0.0902 0.5000
vt 0.2188 0.3090 0.3648
vt 0.1352 -0.0902 0.5000
vt -0.1352 -0.0902 0.5000
vt -0.2188 -0.3090 0.3648
vt -0.0000 -0.4442 0.2812
vt 0.2188 -0.3090 0.3648
vt -0.0000 0.4442 0.2812
vt 0.2188 0.3090 -0.3648
vt 0.1352 0.0902 -0.5000
vt -0.1352 0.0902 -0.5000
vt -0.2188 0.3090 -0.3648
vt 0.0000 0.4442 -0.2812
vt 0.2188 -0.3090 -0.3648
vt -0.0000 -0.4442 -0.2812
vt -0.2188 -0.3090 -0.3648
vt -0.1352 -0.0902 -0.5000
vt 0.1352 -0.0902 -0.5000
vt 0.0000 -0.4442 -0.2812
vt 0.0000 0.1987 0.3215
vt 0.2812 0.0000 0.4442
vt 0.3648 0.2188 0.3090
vt -0.0902 0.5000 0.1352
vt -0.3090 0.3648 0.2188
vt 0.3090 0.3648 0.2188
vt 0.0902 0.5000 0.1352
vt -0.3648 0.2188 0.3090
vt -0.2812 0.0000 0.4442
vt -0.0000 -0.1987 0.3215
vt -0.3648 -0.2188 0.3090
vt 0.0902 -0.5000 0.1352
vt 0.3090 -0.3648 0.2188
vt -0.3090 -0.3648 0.2188
vt -0.0902 -0.5000 0.1352
vt 0.3648 -0.2188 0.3090
vt 0.0000 0.1987 -0.3215
vt -0.3090 0.3648 -0.2188
vt -0.0902 0.5000 -0.1352
vt 0.3648 0.2188 -0.3090
vt 0.2812 -0.0000 -0.4442
vt -0.2812 -0.0000 -0.4442
vt -0.3648 0.2188 -0.3090
vt 0.0902 0.5000 -0.1352
vt 0.3090 0.3648 -0.2188
vt -0.0000 -0.1987 -0.3215
vt -0.0902 -0.5000 -0.1352
vt -0.3090 -0.3648 -0.2188
vt 0.3090 -0.3648 -0.2188
vt 0.0902 -0.5000 -0.1352
vt -0.3648 -0.2188 -0.3090
vt -0.2812 0.0000 -0.4442
vt 0.3648 -0.2188 -0.3090
vt 0.0000 -0.1987 -0.3215
vt -0.0000 0.1987 0.3215
vt 0.2812 -0.0000 0.4442
# 58 texture coords

g Hedra001
s off
f 1/1/1 2/2/1 3/3/1 
f 1/1/2 3/3/2 4/4/2 
f 1/1/2 4/4/2 5/5/2 
f 6/6/3 7/7/3 8/8/3 
f 6/6/4 8/8/4 9/9/4 
f 6/6/3 9/9/3 10/10/3 
f 11/7/5 12/8/5 13/9/5 
f 11/7/6 13/9/6 14/10/6 
f 11/7/6 14/10/6 15/6/6 
f 16/5/7 17/11/7 18/2/7 
f 16/5/7 18/2/7 19/3/7 
f 16/5/7 19/3/7 20/4/7 
f 21/12/8 22/13/8 23/14/8 
f 21/12/8 23/14/8 24/15/8 
f 21/12/8 24/15/8 25/16/8 
f 26/13/9 27/14/9 28/15/9 
f 26/13/10 28/15/10 29/16/10 
f 26/13/9 29/16/9 30/12/9 
f 31/4/11 32/5/11 33/1/11 
f 31/4/12 33/1/12 34/2/12 
f 31/4/11 34/2/11 35/3/11 
f 36/17/13 37/18/13 38/19/13 
f 36/17/13 38/19/13 39/20/13 
f 36/17/13 39/20/13 40/21/13 
f 41/18/14 42/19/14 43/20/14 
f 41/18/15 43/20/15 44/21/15 
f 41/18/15 44/21/15 45/17/15 
f 46/8/16 47/9/16 48/10/16 
f 46/8/16 48/10/16 49/6/16 
f 46/8/16 49/6/16 50/7/16 
f 51/14/17 52/15/17 53/16/17 
f 51/14/18 53/16/18 54/12/18 
f 51/14/18 54/12/18 55/13/18 
f 56/19/19 57/20/19 58/21/19 
f 56/19/19 58/21/19 59/17/19 
f 56/19/19 59/17/19 60/22/19 
f 61/23/11 1/24/11 5/25/11 
f 61/23/11 5/25/11 6/26/11 
f 61/23/11 6/26/11 10/27/11 
f 61/23/11 10/27/11 11/7/11 
f 61/23/11 11/7/11 15/6/11 
f 61/23/11 15/6/11 16/28/11 
f 61/23/11 16/28/11 20/29/11 
f 61/23/11 20/29/11 21/30/11 
f 61/23/12 21/30/12 25/31/12 
f 61/23/11 25/31/11 1/24/11 
f 62/32/5 25/31/5 24/33/5 
f 62/32/5 24/33/5 26/34/5 
f 62/32/6 26/34/6 30/35/6 
f 62/32/6 30/35/6 31/4/6 
f 62/32/6 31/4/6 35/3/6 
f 62/32/6 35/3/6 36/36/6 
f 62/32/6 36/36/6 40/37/6 
f 62/32/6 40/37/6 2/38/6 
f 62/32/6 2/38/6 1/24/6 
f 62/32/6 1/24/6 25/31/6 
f 63/39/9 40/21/9 39/20/9 
f 63/39/9 39/20/9 46/40/9 
f 63/39/9 46/40/9 50/41/9 
f 63/39/9 50/41/9 14/42/9 
f 63/39/9 14/42/9 13/43/9 
f 63/39/9 13/43/9 41/44/9 
f 63/39/10 41/44/10 45/45/10 
f 63/39/10 45/45/10 3/46/10 
f 63/39/9 3/46/9 2/47/9 
f 63/39/9 2/47/9 40/21/9 
f 64/48/15 39/49/15 38/50/15 
f 64/48/15 38/50/15 51/14/15 
f 64/48/15 51/14/15 55/13/15 
f 64/48/15 55/13/15 28/51/15 
f 64/48/15 28/51/15 27/52/15 
f 64/48/15 27/52/15 56/53/15 
f 64/48/14 56/53/14 60/54/14 
f 64/48/14 60/54/14 47/43/14 
f 64/48/15 47/43/15 46/55/15 
f 64/48/15 46/55/15 39/49/15 
f 65/39/17 60/54/17 59/45/17 
f 65/39/17 59/45/17 19/46/17 
f 65/39/18 19/46/18 18/47/18 
f 65/39/18 18/47/18 44/21/18 
f 65/39/18 44/21/18 43/20/18 
f 65/39/18 43/20/18 8/40/18 
f 65/39/18 8/40/18 7/41/18 
f 65/39/18 7/41/18 48/42/18 
f 65/39/18 48/42/18 47/43/18 
f 65/39/18 47/43/18 60/54/18 
f 66/32/3 59/36/3 58/37/3 
f 66/32/3 58/37/3 34/38/3 
f 66/32/3 34/38/3 33/24/3 
f 66/32/4 33/24/4 53/31/4 
f 66/32/4 53/31/4 52/33/4 
f 66/32/4 52/33/4 22/34/4 
f 66/32/3 22/34/3 21/35/3 
f 66/32/3 21/35/3 20/4/3 
f 66/32/3 20/4/3 19/3/3 
f 66/32/3 19/3/3 59/36/3 
f 67/56/19 52/51/19 51/52/19 
f 67/56/19 51/52/19 38/53/19 
f 67/56/20 38/53/20 37/44/20 
f 67/56/20 37/44/20 9/43/20 
f 67/56/19 9/43/19 8/55/19 
f 67/56/19 8/55/19 43/49/19 
f 67/56/19 43/49/19 42/50/19 
f 67/56/19 42/50/19 23/14/19 
f 67/56/19 23/14/19 22/13/19 
f 67/56/19 22/13/19 52/51/19 
f 68/39/21 37/44/21 36/45/21 
f 68/39/21 36/45/21 35/46/21 
f 68/39/8 35/46/8 34/47/8 
f 68/39/8 34/47/8 58/21/8 
f 68/39/8 58/21/8 57/20/8 
f 68/39/8 57/20/8 12/40/8 
f 68/39/8 12/40/8 11/41/8 
f 68/39/8 11/41/8 10/42/8 
f 68/39/8 10/42/8 9/43/8 
f 68/39/8 9/43/8 37/44/8 
f 69/48/13 57/49/13 56/50/13 
f 69/48/13 56/50/13 27/14/13 
f 69/48/13 27/14/13 26/13/13 
f 69/48/13 26/13/13 24/51/13 
f 69/48/13 24/51/13 23/52/13 
f 69/48/13 23/52/13 42/53/13 
f 69/48/22 42/53/22 41/44/22 
f 69/48/22 41/44/22 13/43/22 
f 69/48/13 13/43/13 12/55/13 
f 69/48/13 12/55/13 57/49/13 
f 70/23/7 33/24/7 32/25/7 
f 70/23/7 32/25/7 49/26/7 
f 70/23/7 49/26/7 48/27/7 
f 70/23/7 48/27/7 7/7/7 
f 70/23/7 7/7/7 6/6/7 
f 70/23/7 6/6/7 5/28/7 
f 70/23/7 5/28/7 4/29/7 
f 70/23/7 4/29/7 54/30/7 
f 70/23/23 54/30/23 53/31/23 
f 70/23/7 53/31/7 33/24/7 
f 71/57/2 32/28/2 31/29/2 
f 71/57/2 31/29/2 30/30/2 
f 71/57/1 30/30/1 29/31/1 
f 71/57/2 29/31/2 17/58/2 
f 71/57/2 17/58/2 16/25/2 
f 71/57/2 16/25/2 15/26/2 
f 71/57/2 15/26/2 14/27/2 
f 71/57/2 14/27/2 50/7/2 
f 71/57/2 50/7/2 49/6/2 
f 71/57/2 49/6/2 32/28/2 
f 72/32/24 29/31/24 28/33/24 
f 72/32/24 28/33/24 55/34/24 
f 72/32/16 55/34/16 54/35/16 
f 72/32/16 54/35/16 4/4/16 
f 72/32/16 4/4/16 3/3/16 
f 72/32/16 3/3/16 45/36/16 
f 72/32/16 45/36/16 44/37/16 
f 72/32/16 44/37/16 18/38/16 
f 72/32/16 18/38/16 17/58/16 
f 72/32/24 17/58/24 29/31/24 
# 156 faces

